<svg width="210" height="166" viewBox="0 0 210 166" fill="none" xmlns="http://www.w3.org/2000/svg">
<g clip-path="url(#clip0_2_1141)">
<path d="M33.13 62.39C30.13 55.9 27.63 50.48 25.25 45C23.9652 41.7837 23.6591 38.2596 24.37 34.87C26.1285 23.4032 32.3602 13.1009 41.7 6.22C48.14 1.35 55.19 -0.939998 63.41 0.360002C69.9396 1.42108 76.2319 3.62119 82 6.86C84.9504 8.61138 87.5399 10.909 89.63 13.63C101.13 27.94 102.31 47.28 92.94 63.43C92.66 63.92 92.42 64.43 91.89 65.49C94.79 72.76 99.23 79.54 103.67 86.57C106.79 81.21 109.46 76.18 112.56 71.43C115.56 66.9 118.92 62.67 122.38 57.97C122.17 54.29 120.81 50.5 119.68 46.7C118.076 41.7537 118.231 36.4048 120.12 31.56C122.75 24.93 124.99 18.17 129.45 12.37C135.45 4.51 143.02 1.61 152.78 3.63C160.381 5.13054 167.575 8.23641 173.88 12.74C179.48 16.8079 183.759 22.4354 186.18 28.92C189.84 38.36 188.18 47.47 183.99 56.27C182.4 59.58 180.41 62.69 178.69 65.74C194.88 85.91 209.54 130.8 209.48 147.06C206.56 150.95 202.54 153.4 197.92 155.29C180.23 162.5 162 164.29 143.14 161.68C135.51 160.63 127.77 160.42 120.08 159.79C118.37 159.65 116.49 159.73 115 159.04C110.22 156.82 105.76 157.73 101 159.25C85.28 164.25 69 165.63 52.64 164.92C48.0777 164.655 43.5525 163.942 39.13 162.79C29.7 160.44 20.21 158.19 11.3 154.11C10.3 153.64 9.18001 153.24 8.15001 152.74C0.570006 149.07 -0.849994 146.54 0.490006 138.4C2.88001 123.4 6.49001 108.65 13.66 95.08C17.82 87.26 21.98 79.43 26.41 71.76C28.33 68.34 31 65.31 33.13 62.39ZM84.88 72.26C77.88 75.21 70.54 75.48 63.06 75.13C55.17 74.76 48.24 71.43 41.31 68.48C37.0628 72.5777 33.5068 77.3359 30.78 82.57C28.1933 87.35 25.6633 92.16 23.19 97C17.3824 108.507 13.151 120.744 10.61 133.38C9.81001 137.22 9.18001 141.24 10.77 145.16C12.18 145.87 13.42 146.58 14.77 147.16C25.37 151.65 36.55 154.16 47.77 156.61C50.77 157.27 54.03 156.92 57.17 156.81C59.73 156.71 62.28 156.21 64.85 156C78.2336 154.817 91.3997 151.854 104 147.19C106 146.45 107.84 145.02 109.72 143.93C109.699 142.61 109.585 141.294 109.38 139.99C106.38 128.35 103.51 116.68 100.38 105.09C97.1694 93.3258 91.9235 82.2146 84.88 72.26ZM127.64 67.38C120.47 74.98 114.64 83.44 112.34 93.69C110.96 99.69 109.83 105.9 111.56 112.32C114.33 122.53 116.48 132.91 118.89 143.22C119.4 145.42 119.89 147.62 120.35 149.72C121.2 150.169 122.095 150.527 123.02 150.79C130.95 151.95 138.87 153.26 146.85 154.1C152.79 154.72 158.66 155.88 164.79 155.16C176.06 153.83 186.52 150.16 196.73 145.54C198.115 144.763 199.427 143.863 200.65 142.85C198.28 134.39 196.1 126.39 193.78 118.43C189.78 104.65 184.78 91.25 177.34 78.91C175.91 76.53 175.07 73.58 172.13 72.43C156 79.36 140 78.62 127.64 67.38ZM61.82 9.24C58.17 9.52 54.33 8.81 51.08 11.24C45.08 15.72 39.8 20.84 36.71 27.88C31.41 39.88 35.96 54.76 47.24 61.48C52.4036 64.558 58.1342 66.5645 64.09 67.38C68.6416 68.1366 73.314 67.258 77.28 64.9C80.8675 62.7835 83.8847 59.8239 86.0699 56.2778C88.255 52.7317 89.5423 48.7061 89.82 44.55C90.66 34.43 87.44 25.44 81.71 17.3C80.3125 15.511 78.5457 14.0443 76.53 13C72 10.43 67.17 8.7 61.82 9.24ZM151.73 68.7C159.94 69.17 166.47 64.63 172.05 57.91C183.56 44.03 180.61 25.23 165.38 16.79C164.13 16.1 162.93 15.3 161.63 14.71C155.27 11.83 149.1 11.05 143.52 16.47C142.29 17.66 140.82 18.61 139.61 19.81C130.61 28.69 126.26 38.91 130.46 51.57C131.08 53.46 131.93 55.27 132.66 57.13C135.9 65.38 142.17 68.87 151.73 68.7Z" fill="white"/>
</g>
<defs>
<clipPath id="clip0_2_1141">
<rect width="209.44" height="165.09" fill="white"/>
</clipPath>
</defs>
</svg>
