<svg width="173" height="235" viewBox="0 0 173 235" fill="none" xmlns="http://www.w3.org/2000/svg">
<g clip-path="url(#clip0_2_915)">
<path d="M129 78.41C131.29 79.85 133.67 81.41 136.09 82.88C149.52 91.06 158.86 102.69 164.87 117.1C169.64 128.53 173.19 140.28 172.74 152.83C172.603 156.53 172.019 160.2 171 163.76C167.863 174.781 163.147 185.29 157 194.96C149.636 206.601 139.654 216.361 127.85 223.46C118.18 229.28 107.14 231.32 96.18 233.64C79.05 237.25 63.99 231.93 49.18 224.5C42.8192 221.159 37.0711 216.763 32.18 211.5C24.81 203.92 17.3 196.39 12.05 187.07C9.65996 182.84 7.51996 178.46 5.51996 174.07C0.389955 162.55 -0.800045 150.56 0.469955 138C1.90996 123.74 7.28996 111 13.71 98.46C17.6 90.86 23.58 85.18 30.71 80.63C40.5798 74.1996 51.7818 70.0963 63.47 68.63C66.28 68.29 69.08 67.87 72.41 67.41C73.81 60.34 75.18 53.41 76.56 46.41C77.07 43.88 77.67 41.41 78.09 38.83C78.82 34.36 81.57 31.64 85.69 30.41C88.95 29.41 92.36 28.98 95.91 28.26L105.91 12.76C109.11 7.76 113.91 4.56 118.76 1.56C124.6 -2.09 131.67 0.559998 134.39 7C134.906 8.03356 135.129 9.18909 135.034 10.3406C134.939 11.4921 134.529 12.5953 133.85 13.53C132.846 14.9339 131.75 16.2702 130.57 17.53C124.36 23.88 124.34 23.86 122.07 33.05C125.82 34.27 129.18 36.05 131.75 39.46C135 43.89 136 48.4 133.88 53.2C130.64 60.69 130.21 68.73 128.67 76.55C128.678 77.1839 128.789 77.8122 129 78.41ZM71.87 78.15C60.1684 78.4867 48.743 81.7826 38.66 87.73C32.79 91.21 27.3 95.38 23.6 101.5C17.3523 111.805 12.8263 123.059 10.2 134.82C5.96995 153.93 10.43 171.62 21.93 187.63C25.67 192.82 30.32 196.92 35.04 201.03C39.56 204.96 43.98 209.18 49.04 212.26C61.92 220.06 75.41 226.17 91.18 222.79C92.01 222.61 92.9 222.72 93.75 222.6C107.82 220.66 121.22 217.05 132.34 207.47C142 199.15 150.46 189.85 154.91 177.72C158.766 166.908 160.922 155.563 161.3 144.09C161.6 137.09 160.3 130.3 156.56 124.34C152.795 118.269 148.671 112.429 144.21 106.85C138.231 99.3688 130.547 93.4296 121.8 89.53C113.67 92.83 104.8 92.88 95.94 92.46C92.5049 92.3196 89.144 91.4179 86.1 89.82C80.72 87 76.28 83 71.88 78.15H71.87ZM121.27 58.7C120.077 58.6357 118.882 58.6357 117.69 58.7C107.89 59.7 98.3 59.15 89.15 55.05C88.1733 54.4611 87.0684 54.118 85.93 54.05C85 54.14 83.53 55.05 83.4 55.76C82.56 60.52 82.09 65.34 81.4 70.12C80.87 73.63 82.31 76.12 84.88 78.33C94.0399 86.21 104.44 86.88 115.43 83.52C116.205 83.2038 116.905 82.7291 117.485 82.1264C118.065 81.5236 118.513 80.8061 118.8 80.02C120.633 73.4822 121.793 66.7739 122.26 60C122.28 59.76 121.94 59.53 121.28 58.7H121.27ZM109.93 40.48C113.24 29.99 116.24 19.87 124.37 12.38C124.649 11.9358 124.814 11.4296 124.851 10.9063C124.887 10.383 124.794 9.85877 124.58 9.38C123.58 7.63 122.05 8.53 120.97 9.38C112.06 16.65 105.7 25.38 104.67 37.69L109.93 40.48ZM93.35 36.36C90.22 36.19 88.76 37.62 88.35 40.2C88.1338 41.191 88.2326 42.2248 88.6323 43.1571C89.0321 44.0893 89.713 44.8734 90.58 45.4C100.28 51.6 111 52 122 50.57C124.42 50.25 125.49 47.63 124.28 45.21C123.73 44.1 122.43 43.37 121.02 42.05C117.81 48.05 112.76 48.68 107.5 47.87C102.41 47.08 97.57 45.31 94 41.58C93.75 39.6 93.5499 38 93.35 36.36Z" fill="black"/>
</g>
<defs>
<clipPath id="clip0_2_915">
<rect width="172.79" height="234.8" fill="white"/>
</clipPath>
</defs>
</svg>
