<svg width="188" height="179" viewBox="0 0 188 179" fill="none" xmlns="http://www.w3.org/2000/svg">
<g clip-path="url(#clip0_2_769)">
<path d="M22.21 26.7C23.31 25.25 23.79 24.55 24.35 23.9C26.53 21.42 29.12 20.63 31.95 22.59C38.66 27.22 46.13 26.47 53.5 25.59C56.84 25.18 60.25 24.13 62.6 21.23C62.9985 20.8163 63.4412 20.4474 63.92 20.13C69.77 15.35 75 10.14 76 2.52C78.45 0.519999 80.71 -0.480001 83.44 0.199999C86.17 0.879999 87.72 2.84 89.15 5.07C90.58 7.3 92.08 9.31 93.62 11.37C98.91 18.46 106.1 22 114.83 22.8C121.17 23.38 127.33 23.25 133.39 20.8C136.859 19.4448 140.448 18.4202 144.11 17.74C149.53 16.69 152.73 19.31 153.35 24.96C153.76 28.66 153.68 32.45 154.53 36.04C155.539 40.7859 157.047 45.4117 159.03 49.84C160.407 53.0234 162.67 55.7441 165.549 57.6783C168.428 59.6124 171.802 60.6787 175.27 60.75C177.55 60.87 179.9 60.65 182.1 61.11C183.9 61.49 185.54 62.67 187.2 63.47C187.25 68.14 184.53 70.94 182.32 73.76C177.66 79.69 178.13 85.96 180.49 92.39C181.16 94.2 182.69 95.69 183.79 97.39C184.41 98.31 184.96 99.27 185.84 100.7C184.69 101.7 183.84 102.94 182.66 103.34C166.07 109.16 159.66 120.92 163.86 138.17C164.461 140.373 164.886 142.62 165.13 144.89C165.41 148.63 163.13 150.78 159.3 150.46C157.88 150.34 156.51 149.77 155.1 149.59C143.38 148.03 132.9 150.59 124.9 159.75C121.56 163.61 118.9 168.06 115.98 172.29C115.17 173.45 114.73 174.88 113.88 176C113.106 177.047 111.973 177.772 110.698 178.035C109.423 178.299 108.096 178.084 106.97 177.43C105.244 176.418 103.605 175.264 102.07 173.98C101.19 173.28 100.57 172.25 99.74 171.46C89.82 161.95 79.13 159.35 65.02 165.46C58.22 168.46 51.78 172.17 45.19 175.57C44.68 175.83 44.25 176.24 43.75 176.5C38.08 179.43 32.3 176.2 32.2 169.9C32.13 165.61 32.43 161.31 32.62 157.02C33.12 145.82 26.98 138.84 17.77 134.02C15.01 132.57 11.77 132.02 8.95 130.69C6.63141 129.604 4.44121 128.262 2.42 126.69C1.42 125.9 0.87 124.44 0 123.09C0.822086 121.836 1.70653 120.625 2.65 119.46C6.58 115.12 8.78 109.87 10.65 104.46C14.21 94.19 12.65 84.73 6.12 76.05C4.76 74.22 3.31 72.43 2.12 70.51C1.81363 70.0285 1.61382 69.4871 1.534 68.922C1.45418 68.357 1.49619 67.7814 1.65722 67.2339C1.81824 66.6864 2.09455 66.1797 2.46759 65.7478C2.84062 65.316 3.30175 64.9689 3.82 64.73C4.58 64.36 5.45 64.21 6.24 63.88C17.55 59.12 23.51 50.44 24.85 38.4C25.4849 34.3064 24.5413 30.1243 22.21 26.7ZM142.46 26.55C136.72 27.8 131.78 29.37 126.74 29.85C121.332 30.4576 115.869 30.3837 110.48 29.63C105.48 28.84 100.75 26.4 95.8 25.05C90.33 23.55 87.54 18.26 82.8 15.74C78.37 20.02 74.23 23.93 70.19 27.94C65.45 32.63 59.57 34.53 53.14 34.94C49.43 35.18 45.7 34.94 41.98 35C40.05 35 38.13 35.21 35.88 35.34C34.33 50.34 28.06 62.4 15.08 70.71C19.68 79.08 24.25 86.89 23.08 96.71C22.068 106.131 19.0394 115.224 14.2 123.37L17.78 124.91C18.84 125.36 19.92 125.76 20.95 126.26C34.38 132.75 44.23 141.82 44.05 158.26C44.1982 159.32 44.5551 160.339 45.1 161.26C53.1 158.79 60.39 156.39 67.8 154.26C77.37 151.53 86.47 153.42 95.16 157.75C99.16 159.75 103.05 162.03 107.11 164.25C108.7 161.98 109.91 160.04 111.34 158.25C117.34 150.82 123.73 143.81 133.58 141.7C138.03 140.75 142.63 140.54 147.16 139.98C148.99 139.76 150.81 139.49 152.66 139.24C149.47 120.95 154.37 106.5 170.13 96.48C169.67 94.34 169.13 92.48 168.86 90.48C168 83.41 167.44 76.3 172 70C172.21 69.7 171.84 69 171.66 68C170.14 67.79 168.46 67.64 166.82 67.32C162.845 66.5941 159.143 64.8 156.11 62.13C149.7 56.45 145.47 49.48 144.27 40.87C143.61 36.34 143.1 31.81 142.46 26.55Z" fill="white"/>
<path d="M141.12 96.5C140.36 104.83 137.65 115.99 129.03 124.33C120.62 132.47 111.32 139.33 99.1801 141.74C91.7001 143.19 84.7401 143.6 77.3001 141.37C71.0201 139.49 64.5601 138.47 59.0201 134.58C54.5301 131.43 50.3801 127.96 47.6301 123.14C41.6301 112.56 37.0701 101.5 38.4701 88.98C40.1701 73.86 46.0601 60.92 59.1801 52.25C65.7401 47.92 73.3601 46.39 81.0301 45.43C84.7281 45.0165 88.4528 44.8928 92.1701 45.06C108.25 45.62 121.31 52.78 131.86 64.44C139.12 72.47 141.16 82.57 141.12 96.5ZM87.2601 55.25C80.7959 55.609 74.4299 56.9929 68.4001 59.35C63.79 61.0244 59.891 64.2248 57.3501 68.42C54.8277 72.5619 52.8418 77.0075 51.4401 81.65C47.0701 96.73 51.3501 110.41 59.3001 123.24C60.5561 125.153 62.2062 126.776 64.1401 128C71.3878 132.736 80.0143 134.905 88.6401 134.16C97.4001 133.39 106.07 130.58 112.82 124.25C118 119.39 123.44 114.65 126.47 107.98C130 100.21 130.36 92.09 129.39 83.7C128.52 76.06 124.5 70.49 118.99 65.7C117.48 64.39 115.81 63.28 114.25 62.02C107.19 56.33 99.0801 54.35 87.2601 55.25Z" fill="white"/>
</g>
<defs>
<clipPath id="clip0_2_769">
<rect width="187.2" height="178.12" fill="white"/>
</clipPath>
</defs>
</svg>
