<svg width="112" height="147" viewBox="0 0 112 147" fill="none" xmlns="http://www.w3.org/2000/svg">
<g clip-path="url(#clip0_2_1049)">
<path d="M15.9999 62.84C12.9999 59.05 10.4999 55.56 7.63991 52.41C0.0599093 44.05 0.33991 25.87 6.93991 17C10.5699 12.11 14.6299 7.31 19.9399 4.69C33.8699 -2.25 48.8499 -2.29 60.9999 10.13C64.9431 14.363 67.4943 19.7027 68.3099 25.43C69.6699 33.61 70.5499 41.9 67.1499 49.92C66.909 50.6861 66.7613 51.4785 66.7099 52.28C67.1899 52.8 67.4799 53.38 67.9499 53.6C78.3699 58.6 85.6899 66.95 92.6299 75.75C96.6999 80.92 100.63 86.2 104.63 91.44C107.76 95.56 110.43 99.92 111.63 105.74C107.71 112.79 104.3 120.54 96.1699 125C92.4899 127 89.5199 130.32 86.1699 132.91C82.0688 136.043 77.379 138.318 72.3799 139.6C65.4699 141.4 58.6399 143.53 51.6699 145.05C43.2305 146.775 34.5293 146.775 26.0899 145.05C19.9099 143.89 13.6799 142.92 7.55991 141.46C0.239909 139.73 -0.0600905 139.26 0.0999095 131.46C0.0991188 126.619 0.463486 121.786 1.18991 117C3.18991 105.47 5.54991 94 7.88991 82.53C8.43197 80.3091 9.19581 78.1482 10.1699 76.08C11.9999 71.85 13.8699 67.7 15.9999 62.84ZM24.1799 68.78C20.7784 74.378 18.436 80.5542 17.2699 87C16.2699 92 15.0799 97.06 14.2699 102.13C12.9366 110.023 11.7599 117.937 10.7399 125.87C10.4299 128.33 9.86991 131.02 11.9799 133.69C19.8599 135.95 28.1799 137.9 36.7699 138.3C40.1911 138.544 43.6295 138.346 46.9999 137.71C63.6099 134.03 79.6399 129.05 92.1699 116.53C95.8499 112.85 99.0599 109.01 100.68 104.07C99.9989 102.41 99.1898 100.805 98.2599 99.27C90.4999 88.65 83.1899 77.66 73.6799 68.46C71.0399 65.91 67.8299 63.94 64.8899 61.68C61.9499 59.42 59.2399 59.68 56.4699 62.24C51.0999 67.1 44.5699 68.83 37.4699 68.78C33.1899 68.76 28.8999 68.78 24.2199 68.78H24.1799ZM40.9099 8.37C29.7699 8.46 22.1799 12.1 16.7499 20.09C11.9599 27.09 10.5899 34.69 14.2599 42.76C16.9629 48.4514 20.7425 53.5656 25.3899 57.82C26.8706 59.1561 28.6903 60.059 30.6499 60.43C37.0999 61.63 43.1899 60.57 48.3799 56.24C62.0499 44.83 62.9999 28.18 52.8099 14.17C49.8399 10.07 45.6299 7.62 40.9099 8.37Z" fill="white"/>
</g>
<defs>
<clipPath id="clip0_2_1049">
<rect width="111.6" height="146.36" fill="white"/>
</clipPath>
</defs>
</svg>
