<svg width="136" height="126" viewBox="0 0 136 126" fill="none" xmlns="http://www.w3.org/2000/svg">
<g clip-path="url(#clip0_2_919)">
<path d="M106.21 125C99.53 127.08 94.58 125.16 90.05 121.78C69.84 106.68 48.7 93 27.61 79.19C19 73.56 10.61 67.59 2.09003 61.82C1.34899 61.3793 0.760321 60.7227 0.402872 59.9381C0.0454244 59.1535 -0.0637307 58.2784 0.0900291 57.43C0.554572 54.61 1.30856 51.8454 2.34003 49.18C5.90003 40.46 9.61003 31.8 13.34 23.18C14.98 19.42 18.25 17.86 22.17 17.27C26.41 16.62 30.6 15.71 34.84 15.05C44 13.6 52.56 10.44 61.3 7.77C70.9 4.84 80.58 2.3 90.69 1.9C92.1211 1.91042 93.5395 1.6315 94.86 1.08C99.03 -0.980001 102.86 0.079999 106.11 2.64C115.43 9.76 124.56 17.14 133.77 24.4C136.34 26.4 136.9 29.06 136.05 32.09C132.55 44.47 129.27 56.92 125.47 69.2C122 80.37 118 91.35 114.26 102.43C112.18 108.66 110.26 114.95 108.21 121.17C107.649 122.499 106.981 123.78 106.21 125ZM17.69 60.29L84.77 104.87C84.96 103.82 85.3 103.16 85.11 102.87C75.87 87.3967 66.59 71.96 57.27 56.56C56.0901 54.8936 54.7935 53.313 53.39 51.83C41.88 53.87 30.31 54.81 17.69 60.29ZM64.88 50.53C65.3951 51.9048 66.0066 53.2414 66.71 54.53C74.45 66.53 82.78 78.08 89.12 90.9C89.55 91.76 90.29 92.96 92.31 91.85C92 84.52 91.79 76.9 91.31 69.3C90.8 61.46 92.24 53.5 90.16 45.12C81.68 47.75 72.79 45.91 64.88 50.53ZM103.38 98.2C103.96 97.89 104.72 97.75 104.86 97.37C111.57 79.49 116.69 61.1 122.09 42.79C122.3 42.08 122 41.21 121.89 39.85C114.946 40.0048 108.119 41.6773 101.89 44.75C100.53 62.68 101.88 80.41 103.38 98.2ZM22.8 29C19.56 36.07 16.32 42.21 14.59 49.2C20.82 48.85 37.77 44.84 44.2 42.2C37.3846 37.3043 30.2337 32.8934 22.8 29ZM88.52 35.86C83.83 28.3 77.44 24.07 72.17 18.8C71.38 19.38 70.74 19.61 70.51 20.06C67.69 25.59 64.88 31.14 62.24 36.76C61.87 37.54 62.48 38.76 62.69 40.15C71.4 39.52 79.4 37.84 88.52 35.88V35.86ZM102.52 32.73C111.18 32.16 116.81 30.6 121.02 27.73C114.9 21.24 110 17.64 104.88 16C102.92 21.19 100.83 26.33 102.57 32.75L102.52 32.73ZM58.17 20.68C49.85 22.2 42.45 23.45 34.29 26.1C40.29 30.47 45.53 34.1 52.11 36.74L58.17 20.68ZM95.52 11.92C90.09 12.72 85.52 11.31 81.04 14.74C83.04 16.91 84.5 18.97 86.41 20.51C88.32 22.05 89.41 24.89 92.77 23.89C93.59 20.33 94.41 16.78 95.52 11.92Z" fill="white"/>
</g>
<defs>
<clipPath id="clip0_2_919">
<rect width="136.42" height="125.85" fill="white"/>
</clipPath>
</defs>
</svg>
