<svg width="200" height="218" viewBox="0 0 200 218" fill="none" xmlns="http://www.w3.org/2000/svg">
<g clip-path="url(#clip0_2_1247)">
<path d="M189.06 28.0699C191.32 30.5399 193.01 32.4799 194.8 34.3299C200.23 39.9699 201.08 46.6199 197.95 53.3799C194.34 61.1713 190.277 68.7443 185.78 76.0599C178.59 87.7699 171 99.2499 162 109.73C160.16 111.86 158.19 113.88 156.26 115.97C152.67 114.72 150.45 112.49 148.26 110.33C146.07 108.17 145.35 105.33 147 102.52C149.17 98.8199 151.42 95.1499 153.9 91.6499C160.36 82.5399 167.15 73.6499 173.44 64.4399C176.8 59.4899 179.44 54.0499 182.32 48.7799C182.96 47.6099 183.46 46.1499 181.26 44.8499C180.62 45.7899 179.97 46.6199 179.45 47.5199C171.31 61.6999 163 75.6999 151.64 87.7099C147.14 92.4899 143.19 97.8099 139.07 102.95C138.279 104.121 137.567 105.343 136.94 106.61C136.39 107.52 135.87 109.02 135.14 109.14C131.88 109.72 130.54 112.41 128.68 114.48C121.23 122.81 113.88 131.23 106.44 139.57C94.1385 153.574 80.067 165.917 64.58 176.29C56.47 181.63 49 187.89 41 193.43C32.51 199.31 24.47 205.58 17.39 213.19C12.58 218.32 8.00001 218.74 2.63001 216C0.240008 214.78 -0.429992 213 0.260008 210.3C1.50001 205.37 4.55001 201.5 8.02001 198.13C11.49 194.76 13.25 190.93 14.51 186.4C15.7442 181.987 17.507 177.74 19.76 173.75C27.4 160.3 34.97 146.75 43.25 133.75C54.8 115.56 68.8 99.2399 83.92 83.8899C85.53 82.2599 87.11 80.5899 88.77 79.0099C89.5549 78.3805 90.1643 77.5593 90.5392 76.6256C90.914 75.6919 91.0418 74.6774 90.91 73.6799C90.7649 72.5353 90.8852 71.3726 91.2615 70.2818C91.6378 69.1911 92.26 68.2016 93.08 67.3899C101.47 57.9799 108.51 47.3899 117.93 38.9099C130.28 27.7799 142.71 16.7199 157.18 8.3399C162.162 5.5206 167.315 3.01571 172.61 0.839905C177.9 -1.4001 187.02 1.0599 190.61 5.5899C191.848 7.14654 192.55 9.06182 192.61 11.0499C192.436 14.749 191.961 18.4278 191.19 22.0499C190.629 24.1062 189.917 26.1183 189.06 28.0699ZM95.43 82.0699C94.2119 82.8892 93.0646 83.8091 92 84.8199C83.06 94.8199 73.73 104.58 65.36 115.06C51.6621 132.327 39.7009 150.904 29.65 170.52C27.43 174.83 24.8 178.93 22.47 183.2C20.74 186.39 21.1 188.5 23.47 190.98C26.22 193.88 28.31 194.23 31.78 192.23C33.505 191.221 35.1741 190.119 36.78 188.93C41.15 185.71 45.47 182.44 49.78 179.19C60.29 171.3 71.24 164 81.28 155.46C94.35 144.33 105.06 130.93 116.96 118.69C120.05 115.51 122.03 111.25 124.71 107.2C119.8 103.34 114.77 99.6599 110.05 95.5999C105.08 91.3399 100.42 86.7299 95.43 82.0899V82.0699ZM130.59 102.45C137.86 93.9099 144.49 86.4499 150.77 78.6599C164.67 61.4299 175.68 42.3999 184.77 22.2899C185.919 19.3688 186.512 16.2588 186.52 13.1199C186.71 8.8199 184.08 5.9199 179.81 5.8899C176.969 5.90348 174.16 6.48842 171.55 7.6099C154 15.2099 138.93 26.6099 125.34 39.7799C117.17 47.7799 109.84 56.5699 102.25 65.1099C100.58 66.9899 99.42 69.2999 97.81 71.7399C106.18 84.7899 117.74 93.7999 130.59 102.47V102.45ZM155.28 106.23C156.329 105.509 157.292 104.67 158.15 103.73C165.15 94.0399 172.28 84.3599 179.15 74.5299C184.049 67.5095 188.318 60.0706 191.91 52.2999C194.53 46.6499 194.41 41.8799 189.38 37.7399C188.52 37.0299 187.73 36.2399 186.38 34.9899C185.7 36.5999 184.77 37.7999 184.83 38.9899C184.974 40.4114 185.53 41.7599 186.43 42.8699C189.11 46.2499 189.01 49.5799 186.92 53.1699C185.64 55.3799 184.82 57.8799 183.44 60.0199C177.56 69.1266 171.607 78.1832 165.58 87.1899C162.25 92.1899 158.72 97.0199 155.35 101.98C154.59 103.07 153.66 104.34 155.28 106.25V106.23ZM21.63 198.88C17.57 197.77 17.5 197.71 16.91 198.4C14.36 201.4 11.79 204.35 9.40001 207.4C8.93001 208 9.18001 209.16 9.02001 210.9C15 208.13 17.64 203.53 21.63 198.88Z" fill="black"/>
</g>
<defs>
<clipPath id="clip0_2_1247">
<rect width="199.76" height="217.68" fill="white"/>
</clipPath>
</defs>
</svg>
