<svg width="99" height="157" viewBox="0 0 99 157" fill="none" xmlns="http://www.w3.org/2000/svg">
<path d="M10.5001 144.16C12.1001 138.16 17.1001 134.8 20.2701 130.16C23.6701 125.16 27.3501 120.46 30.9601 115.66C34.4001 111.08 37.9601 106.61 41.3401 101.99C44.8801 97.13 48.3201 92.2033 51.6601 87.21C54.8001 82.51 58.9301 78.4 60.9001 72.57C59.5908 71.0757 58.1845 69.6693 56.6901 68.36C45.5301 59.81 35.7501 49.76 25.6301 40.07C17.7307 32.4925 9.33181 25.4533 0.490122 19C-0.869878 15.21 0.770122 11.87 3.34012 9.06001C5.87507 6.33991 8.63118 3.83466 11.5801 1.57001C14.6601 -0.839988 18.1801 -0.209988 21.3201 1.47001C26.3201 4.17001 31.2301 7.20001 36.1601 10.09C36.6501 10.38 37.0801 10.79 37.5801 11.09C55.0601 20.82 69.3101 34.43 83.0001 48.79C86.9401 52.94 91.0801 56.9 95.0001 61.08C99.2901 65.67 99.6901 67.97 96.6801 73.3C93.0001 79.76 89.0001 86 85.0801 92.36C82.5501 96.51 79.9301 100.61 77.4601 104.8C69.5801 118.18 59.2401 129.69 49.5701 141.71C45.9983 146.169 41.9021 150.181 37.3701 153.66C33.3701 156.73 29.8901 156.87 25.5701 154.08C20.7901 151 16.0601 147.83 10.5001 144.16ZM88.2301 67.37C71.5801 44.79 35.4401 15.37 16.3701 8.86001C14.0601 10.71 11.5701 12.53 10.5401 16.17C12.9701 18.17 15.3801 20.17 17.7101 22.23C24.3601 28.09 31.2901 33.68 37.5401 39.94C46.7912 49.3021 56.5741 58.1234 66.8401 66.36C68.5801 67.74 70.1201 69.36 72.1101 71.24C70.4201 74.81 69.2501 78.41 67.2101 81.41C60.9501 90.63 54.4935 99.7134 47.8401 108.66C40.3201 118.74 32.4701 128.59 24.8401 138.56C24.2241 139.493 23.676 140.469 23.2001 141.48C24.9901 144.68 27.7901 145.79 30.5801 146.62C37.3601 142.16 49.5801 128.85 59.2301 115.62C73.1401 96.51 86.1501 74.88 88.2301 67.37Z" fill="white"/>
</svg>
