<svg width="99" height="157" viewBox="0 0 99 157" fill="none" xmlns="http://www.w3.org/2000/svg">
<g clip-path="url(#clip0_8_2)">
<path d="M88.0599 11.91C86.4599 17.91 81.4599 21.27 78.2899 25.91C74.8899 30.91 71.2099 35.61 67.5999 40.41C64.1599 44.99 60.5999 49.46 57.2199 54.08C53.6799 58.94 50.2399 63.8667 46.8999 68.86C43.7599 73.56 39.6299 77.67 37.6599 83.5C38.9692 84.9944 40.3756 86.4007 41.8699 87.71C53.0299 96.26 62.8099 106.31 72.9299 116C80.8294 123.578 89.2283 130.617 98.0699 137.07C99.4299 140.86 97.7899 144.2 95.2199 147.01C92.685 149.73 89.9289 152.235 86.9799 154.5C83.8999 156.91 80.3799 156.28 77.2399 154.6C72.2399 151.9 67.3299 148.87 62.3999 145.98C61.9099 145.69 61.4799 145.28 60.9799 144.98C43.4999 135.25 29.2499 121.64 15.5599 107.28C11.6199 103.13 7.47994 99.17 3.55994 94.99C-0.730063 90.4 -1.13006 88.1 1.87994 82.77C5.55994 76.31 9.55993 70.07 13.4799 63.71C16.0099 59.56 18.6299 55.46 21.0999 51.27C28.9799 37.89 39.3199 26.38 48.9899 14.36C52.5617 9.90099 56.6579 5.88872 61.1899 2.41002C65.1899 -0.659981 68.6699 -0.799979 72.9899 1.99002C77.7699 5.07002 82.4999 8.24002 88.0599 11.91ZM10.3299 88.7C26.9799 111.28 63.1199 140.7 82.1899 147.21C84.4999 145.36 86.9899 143.54 88.0199 139.9C85.5899 137.9 83.1799 135.9 80.8499 133.84C74.1999 127.98 67.2699 122.39 61.0199 116.13C51.7688 106.768 41.986 97.9466 31.7199 89.71C29.9799 88.33 28.4399 86.71 26.4499 84.83C28.1399 81.26 29.3099 77.66 31.3499 74.66C37.6099 65.44 44.0666 56.3567 50.7199 47.41C58.2399 37.33 66.0899 27.48 73.7199 17.51C74.3359 16.5773 74.884 15.6014 75.3599 14.59C73.5699 11.39 70.7699 10.28 67.9799 9.45003C61.1999 13.91 48.9799 27.22 39.3299 40.45C25.4199 59.56 12.4099 81.19 10.3299 88.7Z" fill="white"/>
</g>
<defs>
<clipPath id="clip0_8_2">
<rect width="98.56" height="156.07" fill="white" transform="matrix(-1 0 0 -1 98.5601 156.07)"/>
</clipPath>
</defs>
</svg>
